PathFileType	4	(x/y/z)	S10_PSF_T15
DataRate	CameraRate	NumFrames	NumMarkers	Units	OrigDataRate	OrigDataStartFrame	OrigNumFrames
240	240	10	51	mm	240	330	439
Frame#	Time	Sternum			R.Acromium			L.Acromium			Top.Head			R.ASIS			L.ASIS			R.PSIS			L.PSIS			R.Great.Tro			L.Great.Tro			R.Iliac.Crest			L.Iliac.Crest			V.Sacral			R.Thigh.Upper.Post			R.Thigh.Lower.Ant			R.Thigh.Lower.Post			R.Thigh.Upper.Ant			R.Knee.Lat			R.Knee.Med			R.Shank.Upper.Post			R.Shank.Lower.Ant			R.Shank.Lower.Post			R.Shank.Upper.Ant			R.Ankle.Lat			R.Ankle.Med			R.Heel.Upper			R.Heel.Med			R.Heel.Lat			R.Toe.Lat			R.Toe.Med			R.Toe.Tip			L.Thigh.Upper.Post			L.Thigh.Lower.Ant			L.Thigh.Lower.Post			L.Thigh.Upper.Ant			L.Knee.Lat			L.Knee.Med			L.Shank.Upper.Post			L.Shank.Lower.Ant			L.Shank.Lower.Post			L.Shank.Upper.Ant			L.Ankle.Lat			L.Ankle.Med			L.Heel.Upper			L.Heel.Med			L.Heel.Lat			L.Toe.Lat			L.Toe.Med			L.Toe.Tip			Cervical.Spine			Back			
		X1	Y1	Z1	X2	Y2	Z2	X3	Y3	Z3	X4	Y4	Z4	X5	Y5	Z5	X6	Y6	Z6	X7	Y7	Z7	X8	Y8	Z8	X9	Y9	Z9	X10	Y10	Z10	X11	Y11	Z11	X12	Y12	Z12	X13	Y13	Z13	X14	Y14	Z14	X15	Y15	Z15	X16	Y16	Z16	X17	Y17	Z17	X18	Y18	Z18	X19	Y19	Z19	X20	Y20	Z20	X21	Y21	Z21	X22	Y22	Z22	X23	Y23	Z23	X24	Y24	Z24	X25	Y25	Z25	X26	Y26	Z26	X27	Y27	Z27	X28	Y28	Z28	X29	Y29	Z29	X30	Y30	Z30	X31	Y31	Z31	X32	Y32	Z32	X33	Y33	Z33	X34	Y34	Z34	X35	Y35	Z35	X36	Y36	Z36	X37	Y37	Z37	X38	Y38	Z38	X39	Y39	Z39	X40	Y40	Z40	X41	Y41	Z41	X42	Y42	Z42	X43	Y43	Z43	X44	Y44	Z44	X45	Y45	Z45	X46	Y46	Z46	X47	Y47	Z47	X48	Y48	Z48	X49	Y49	Z49	X50	Y50	Z50	X51	Y51	Z51	

330	1.3708	306.25	1262.3	325.1	191.58	1427.2	473.66	179.96	1432.8	165.92	130.27	1735.4	340.01	250.97	990.9	438.58	255.07	1026.7	210.28	51.208	1010.8	346.18	57.22	1025.6	265.99	177.46	902.64	500.16	202.23	967.88	146.83	152.75	1064.3	483.13	186.05	1096.5	183.64	34.633	982.47	304.54	219.33	697.49	506.2	288.53	627.02	478.62	225.32	608.15	500.12	284.1	718.83	480.73	227.64	484.73	469.89	246.48	479.4	337.9	25.648	399.83	464.53	11.091	309	456.52	-35.11	356.55	459.67	77.154	348.99	462.73	-109.94	275.81	443.44	-92.284	274.01	360.91	-159.73	313.87	392.28	-183.74	301.3	363.16	-185.65	305.31	425.82	-162.59	132.54	465.94	-141.71	111.4	360.72	-111.68	58.657	401.46	219.85	681.44	155.7	307.05	619.54	188.25	236.45	590.67	182.37	294.49	705.35	163.95	285.04	513.83	202.25	285.75	520.08	330.89	222.27	298.86	207.7	288.94	212.25	226.62	225.59	222.06	219.44	286.01	288.28	214.08	251.06	105.37	233.74	267.21	117.64	320.67	184.93	76.447	281.97	196.76	43.895	314.75	190.28	46.824	249.79	366.12	42.64	207.01	396.97	46.861	314.67	449.95	59.568	264.64	106.95	1486.6	332.44	21.951	1277.7	331.07
331	1.375	311.13	1263.2	325.71	195.6	1428.1	473.6	185.92	1433.7	165.7	135.56	1736.5	339.74	255.51	992.08	438.36	260.07	1027.5	209.99	55.958	1011.9	345.48	62.104	1026.7	265.3	182.15	903.96	499.81	206.97	968.5	146.48	157.18	1065.4	482.65	191.3	1097.5	183.39	39.393	983.59	303.83	226.83	699.29	506.39	296.9	629.71	478.96	234.01	610.02	500.51	291.27	721.4	480.77	238.45	486.67	470.23	256.88	481.55	338	36.863	401.39	464.33	22.492	310.52	456.41	-23.79	357.98	459.38	88.471	350.66	462.73	-98.542	277.15	443.12	-80.531	275.06	360.64	-148.42	314.75	391.52	-172.26	301.89	362.4	-174.32	306.18	425.01	-150.59	133.8	466.01	-129.33	112.27	360.98	-99.219	59.848	402.01	222.3	682.01	155.58	309.11	619.45	187.87	238.27	591.08	182.17	297.19	705.33	163.55	286.35	513.81	201.91	287.25	519.99	330.51	222.84	299.02	207.52	289.24	212.21	226.45	225.91	222.23	219.32	286.56	288.23	213.86	251.1	105.39	233.71	267.34	117.76	320.63	184.91	76.468	281.93	196.75	43.936	314.73	190.28	46.835	249.77	366.11	42.612	206.98	396.97	46.86	314.65	449.95	59.54	264.62	111.84	1487.6	331.77	26.886	1278.8	329.68
332	1.3792	316.01	1264.2	326.29	199.62	1429	473.53	191.84	1434.7	165.5	140.85	1737.6	339.5	260.05	993.3	438.12	265.04	1028.3	209.68	60.705	1013	344.82	66.97	1027.8	264.65	186.87	905.34	499.48	211.65	969.11	146.14	161.62	1066.6	482.18	196.5	1098.5	183.14	44.145	984.72	303.16	234.31	701.15	506.57	305.23	632.47	479.25	242.68	611.97	500.9	298.41	724.01	480.76	249.17	488.69	470.58	267.25	483.77	338.12	48.019	402.86	464.09	33.927	311.92	456.27	-12.482	359.26	459.06	99.778	352.27	462.7	-87.087	278.28	442.76	-68.702	275.88	360.36	-137.14	315.3	390.71	-160.76	302.11	361.58	-163	306.67	424.16	-138.28	134.79	466.08	-116.57	112.87	361.23	-86.289	60.879	402.6	224.69	682.58	155.49	311.12	619.35	187.51	240.06	591.51	182	299.85	705.31	163.15	287.62	513.81	201.57	288.73	519.91	330.14	223.41	299.18	207.32	289.56	212.19	226.31	226.25	222.39	219.17	287.11	288.19	213.65	251.14	105.41	233.68	267.47	117.87	320.59	184.89	76.491	281.89	196.73	43.98	314.71	190.27	46.848	249.75	366.11	42.585	206.95	396.98	46.86	314.63	449.94	59.513	264.61	116.72	1488.6	331.12	31.812	1279.8	328.31
333	1.3833	320.88	1265.1	326.85	203.64	1429.9	473.47	197.72	1435.6	165.31	146.13	1738.8	339.28	264.6	994.55	437.86	269.97	1029.1	209.34	65.449	1014.1	344.2	71.82	1028.8	264.03	191.61	906.76	499.18	216.28	969.69	145.8	166.09	1067.8	481.71	201.65	1099.4	182.88	48.89	985.85	302.54	241.79	703.06	506.74	313.52	635.3	479.5	251.34	613.99	501.28	305.51	726.67	480.69	259.8	490.78	470.91	277.61	486.06	338.24	59.11	404.22	463.81	45.389	313.21	456.11	-1.1899	360.38	458.71	111.07	353.85	462.65	-75.575	279.19	442.39	-56.805	276.48	360.05	-125.88	315.53	389.86	-149.24	301.96	360.72	-151.68	306.81	423.25	-125.66	135.49	466.16	-103.46	113.23	361.49	-72.911	61.741	403.2	227.04	683.15	155.42	313.08	619.25	187.15	241.81	591.94	181.86	302.46	705.28	162.76	288.86	513.82	201.24	290.21	519.84	329.77	223.98	299.34	207.09	289.88	212.17	226.17	226.59	222.57	219	287.66	288.17	213.46	251.18	105.42	233.65	267.58	117.98	320.54	184.87	76.516	281.85	196.71	44.026	314.69	190.26	46.863	249.73	366.1	42.558	206.92	396.98	46.861	314.6	449.94	59.488	264.59	121.58	1489.7	330.49	36.727	1280.9	326.98
334	1.3875	325.73	1266.1	327.38	207.66	1430.7	473.4	203.56	1436.5	165.13	151.4	1739.9	339.09	269.15	995.82	437.58	274.87	1029.9	208.99	70.193	1015.2	343.61	76.655	1029.9	263.45	196.39	908.22	498.89	220.86	970.25	145.46	170.58	1069	481.25	206.75	1100.4	182.59	53.63	986.98	301.97	249.25	705.02	506.9	321.79	638.17	479.71	259.98	616.08	501.65	312.58	729.36	480.57	270.32	492.93	471.24	287.97	488.41	338.38	70.131	405.47	463.49	56.873	314.37	455.93	10.081	361.32	458.32	122.34	355.36	462.57	-64.008	279.87	441.99	-44.845	276.84	359.73	-114.65	315.44	388.97	-137.72	301.43	359.81	-140.36	306.58	422.3	-112.76	135.92	466.23	-90.011	113.33	361.75	-59.105	62.432	403.83	229.34	683.72	155.39	315.01	619.14	186.81	243.52	592.38	181.76	305.03	705.25	162.38	290.07	513.85	200.91	291.7	519.76	329.4	224.55	299.51	206.85	290.19	212.17	226.04	226.93	222.74	218.83	288.2	288.15	213.28	251.22	105.44	233.62	267.68	118.09	320.49	184.84	76.541	281.81	196.69	44.073	314.66	190.26	46.879	249.72	366.1	42.532	206.89	396.98	46.863	314.59	449.94	59.465	264.58	126.44	1490.7	329.87	41.63	1282	325.67
335	1.3917	330.58	1267.1	327.87	211.68	1431.6	473.33	209.37	1437.5	164.96	156.67	1741	338.92	273.71	997.11	437.27	279.73	1030.7	208.6	74.936	1016.4	343.07	81.477	1030.9	262.9	201.19	909.7	498.62	225.4	970.79	145.12	175.09	1070.3	480.78	211.79	1101.3	182.29	58.366	988.11	301.46	256.72	707.02	507.05	330.01	641.09	479.87	268.61	618.22	502.01	319.61	732.08	480.4	280.74	495.15	471.55	298.31	490.82	338.53	81.079	406.61	463.14	68.373	315.41	455.73	21.326	362.09	457.91	133.58	356.81	462.47	-52.389	280.32	441.56	-32.826	276.97	359.38	-103.42	315.01	388.03	-126.17	300.53	358.87	-129.04	305.98	421.31	-99.573	136.07	466.31	-76.227	113.19	362.01	-44.89	62.95	404.47	231.61	684.3	155.37	316.89	619.04	186.47	245.21	592.82	181.68	307.55	705.2	162.01	291.24	513.88	200.59	293.2	519.69	329.03	225.11	299.68	206.6	290.51	212.18	225.93	227.26	222.91	218.64	288.74	288.15	213.1	251.25	105.46	233.59	267.78	118.19	320.45	184.82	76.567	281.78	196.67	44.121	314.64	190.25	46.897	249.7	366.1	42.507	206.87	396.98	46.865	314.57	449.94	59.444	264.56	131.28	1491.7	329.26	46.521	1283	324.4
336	1.3958	335.42	1268	328.32	215.71	1432.4	473.25	215.14	1438.4	164.8	161.93	1742.1	338.78	278.29	998.41	436.94	284.57	1031.4	208.2	79.678	1017.5	342.57	86.287	1031.9	262.39	206.03	911.21	498.38	229.9	971.29	144.79	179.62	1071.6	480.32	216.78	1102.2	181.96	63.098	989.23	300.99	264.18	709.05	507.18	338.21	644.05	479.97	277.23	620.42	502.36	326.6	734.81	480.18	291.03	497.41	471.84	308.62	493.27	338.68	91.951	407.62	462.75	79.886	316.32	455.51	32.544	362.69	457.47	144.78	358.19	462.34	-40.716	280.53	441.09	-20.752	276.87	359.02	-92.213	314.26	387.06	-114.6	299.27	357.89	-117.7	305.02	420.28	-86.123	135.95	466.38	-62.127	112.82	362.27	-30.285	63.297	405.13	233.85	684.87	155.38	318.73	618.93	186.15	246.86	593.28	181.63	310.03	705.15	161.66	292.39	513.92	200.27	294.71	519.63	328.66	225.66	299.85	206.34	290.82	212.2	225.82	227.6	223.09	218.45	289.26	288.15	212.94	251.29	105.48	233.55	267.86	118.3	320.4	184.79	76.595	281.74	196.65	44.171	314.61	190.25	46.915	249.69	366.09	42.483	206.84	396.97	46.868	314.55	449.94	59.424	264.55	136.11	1492.7	328.67	51.397	1284	323.17
337	1.4	340.24	1269	328.72	219.75	1433.3	473.16	220.88	1439.4	164.66	167.19	1743.1	338.67	282.88	999.73	436.59	289.37	1032.2	207.77	84.421	1018.6	342.1	91.085	1032.9	261.92	210.91	912.74	498.15	234.36	971.78	144.46	184.17	1072.9	479.86	221.73	1103	181.61	67.827	990.33	300.58	271.63	711.12	507.31	346.37	647.02	480.03	285.83	622.65	502.7	333.56	737.56	479.92	301.21	499.7	472.12	318.88	495.77	338.84	102.74	408.5	462.33	91.407	317.09	455.27	43.731	363.1	457	155.95	359.5	462.19	-28.991	280.49	440.58	-8.6275	276.55	358.63	-81.006	313.17	386.05	-103	297.64	356.89	-106.36	303.69	419.22	-72.414	135.57	466.46	-47.722	112.21	362.53	-15.308	63.48	405.81	236.06	685.45	155.4	320.54	618.81	185.83	248.49	593.75	181.61	312.47	705.08	161.32	293.5	513.97	199.96	296.24	519.58	328.3	226.19	300.02	206.08	291.11	212.23	225.71	227.92	223.27	218.25	289.77	288.16	212.78	251.32	105.5	233.52	267.93	118.4	320.35	184.77	76.623	281.7	196.63	44.221	314.59	190.24	46.935	249.67	366.09	42.46	206.81	396.97	46.87	314.54	449.94	59.406	264.54	140.93	1493.7	328.08	56.259	1285	321.98
338	1.4042	345.05	1270	329.08	223.79	1434.1	473.06	226.58	1440.3	164.52	172.44	1744.2	338.58	287.48	1001	436.21	294.16	1032.9	207.32	89.164	1019.7	341.67	95.874	1033.9	261.47	215.82	914.27	497.93	238.8	972.23	144.13	188.72	1074.3	479.4	226.64	1103.8	181.23	72.555	991.42	300.21	279.08	713.2	507.42	354.48	650.02	480.02	294.41	624.93	503.04	340.48	740.31	479.61	311.26	502.03	472.39	329.07	498.3	339	113.46	409.25	461.89	102.93	317.72	455.02	54.887	363.32	456.5	167.09	360.73	462.03	-17.212	280.2	440.04	3.5467	275.99	358.23	-69.795	311.75	385.02	-91.375	295.65	355.87	-94.994	302.01	418.13	-58.454	134.93	466.53	-33.026	111.39	362.78	0.022964	63.507	406.49	238.24	686.03	155.43	322.32	618.69	185.51	250.09	594.22	181.6	314.88	705.01	161	294.57	514.02	199.64	297.77	519.53	327.93	226.7	300.19	205.82	291.39	212.27	225.6	228.23	223.45	218.06	290.26	288.19	212.62	251.36	105.52	233.48	267.99	118.51	320.3	184.74	76.652	281.67	196.6	44.273	314.56	190.24	46.956	249.66	366.09	42.439	206.79	396.97	46.871	314.53	449.94	59.388	264.53	145.74	1494.6	327.51	61.107	1286	320.84
339	1.4083	349.85	1271	329.4	227.85	1434.9	472.96	232.24	1441.3	164.38	177.68	1745.2	338.51	292.11	1002.4	435.8	298.92	1033.6	206.84	93.908	1020.8	341.28	100.65	1034.9	261.06	220.77	915.8	497.74	243.21	972.66	143.8	193.29	1075.6	478.95	231.5	1104.6	180.82	77.282	992.49	299.88	286.52	715.31	507.53	362.56	653.02	479.97	302.97	627.23	503.36	347.36	743.06	479.26	321.19	504.37	472.63	339.19	500.85	339.16	124.1	409.85	461.42	114.46	318.22	454.75	66.01	363.36	455.99	178.18	361.87	461.85	-5.3772	279.65	439.44	15.769	275.21	357.81	-58.574	310.01	383.96	-79.704	293.31	354.83	-83.603	299.97	417.03	-44.248	134.05	466.6	-18.051	110.37	363.04	15.691	63.387	407.18	240.41	686.62	155.48	324.07	618.57	185.2	251.67	594.7	181.61	317.24	704.92	160.7	295.61	514.09	199.32	299.32	519.49	327.56	227.19	300.37	205.56	291.66	212.32	225.48	228.52	223.64	217.87	290.72	288.22	212.45	251.39	105.54	233.45	268.03	118.61	320.25	184.71	76.683	281.63	196.57	44.325	314.53	190.23	46.978	249.65	366.08	42.418	206.77	396.97	46.872	314.52	449.94	59.37	264.52	150.55	1495.5	326.96	65.94	1287	319.74
